<?xml version="1.0" encoding="UTF-8"?>
<svg width="14px" height="16px" viewBox="0 0 14 16" version="1.1" xmlns="http://www.w3.org/2000/svg" xmlns:xlink="http://www.w3.org/1999/xlink">
    <title>Shape</title>
    <g id="Page-1" stroke="none" stroke-width="1" fill="none" fill-rule="evenodd">
        <g id="CLANEK-1.0" transform="translate(-1389.000000, -65.000000)" fill="#FFFFFF" fill-rule="nonzero">
            <path d="M1392.11111,70.3333333 L1392.11111,68.8095238 C1392.11111,66.7055819 1393.85223,65 1396,65 C1398.14777,65 1399.88889,66.7055819 1399.88889,68.8095238 L1399.88889,70.3333333 L1402.22222,70.3333333 C1402.65178,70.3333333 1403,70.6744497 1403,71.0952381 L1403,80.2380952 C1403,80.6588836 1402.65178,81 1402.22222,81 L1389.77778,81 C1389.34822,81 1389,80.6588836 1389,80.2380952 L1389,71.0952381 C1389,70.6744497 1389.34822,70.3333333 1389.77778,70.3333333 L1392.11111,70.3333333 Z M1392.11111,71.8571429 L1390.55556,71.8571429 L1390.55556,79.4761905 L1401.44444,79.4761905 L1401.44444,71.8571429 L1399.88889,71.8571429 L1399.88889,73.3809524 L1398.33333,73.3809524 L1398.33333,71.8571429 L1393.66667,71.8571429 L1393.66667,73.3809524 L1392.11111,73.3809524 L1392.11111,71.8571429 Z M1393.66667,70.3333333 L1398.33333,70.3333333 L1398.33333,68.8095238 C1398.33333,67.5471587 1397.28866,66.5238095 1396,66.5238095 C1394.71134,66.5238095 1393.66667,67.5471587 1393.66667,68.8095238 L1393.66667,70.3333333 L1393.66667,70.3333333 Z" id="Shape"></path>
        </g>
    </g>
</svg>