<?xml version="1.0" encoding="UTF-8"?>
<svg width="14px" height="14px" viewBox="0 0 14 14" version="1.1" xmlns="http://www.w3.org/2000/svg" xmlns:xlink="http://www.w3.org/1999/xlink">
    <title>Shape</title>
    <g id="Page-1" stroke="none" stroke-width="1" fill="none" fill-rule="evenodd">
        <g id="HP-1.5" transform="translate(-1095.000000, -67.000000)" fill="#FF102C" fill-rule="nonzero">
            <g id="Group" transform="translate(1092.000000, 65.000000)">
                <path d="M11.5555556,14.4444444 L15.4444444,14.4444444 L15.4444444,3.55555556 L4.55555556,3.55555556 L4.55555556,14.4444444 L10,14.4444444 L10,10.5555556 L8.44444444,10.5555556 L8.44444444,9 L10,9 L10,7.71355556 C10,6.67366667 10.1088889,6.29644444 10.3111111,5.91611111 C10.5103113,5.5398111 10.8181914,5.23220202 11.1946667,5.03333333 C11.4917778,4.87388889 11.8612222,4.77822222 12.5067778,4.737 C12.7626667,4.72066667 13.094,4.74088889 13.5007778,4.79922222 L13.5007778,6.277 L13.1111111,6.277 C12.3978889,6.277 12.1031111,6.31044444 11.9273333,6.40455556 C11.8224473,6.45849967 11.7370552,6.54389178 11.6831111,6.64877778 C11.5897778,6.82455556 11.5555556,6.99877778 11.5555556,7.71277778 L11.5555556,9 L13.5,9 L13.1111111,10.5555556 L11.5555556,10.5555556 L11.5555556,14.4444444 Z M3.77777778,2 L16.2222222,2 C16.651777,2 17,2.34822297 17,2.77777778 L17,15.2222222 C17,15.651777 16.651777,16 16.2222222,16 L3.77777778,16 C3.34822297,16 3,15.651777 3,15.2222222 L3,2.77777778 C3,2.34822297 3.34822297,2 3.77777778,2 Z" id="Shape"></path>
            </g>
        </g>
    </g>
</svg>