<?xml version="1.0" encoding="UTF-8"?>
<svg width="14px" height="14px" viewBox="0 0 14 14" version="1.1" xmlns="http://www.w3.org/2000/svg" xmlns:xlink="http://www.w3.org/1999/xlink">
    <title>Shape</title>
    <g id="Page-1" stroke="none" stroke-width="1" fill="none" fill-rule="evenodd">
        <g id="HP-1.5" transform="translate(-1163.000000, -67.000000)" fill="#FF102C" fill-rule="nonzero">
            <g id="Group" transform="translate(1161.000000, 65.000000)">
                <path d="M9,6.9 C7.84020203,6.9 6.9,7.84020203 6.9,9 C6.9,10.159798 7.84020203,11.1 9,11.1 C10.159798,11.1 11.1,10.159798 11.1,9 C11.1,7.84020203 10.159798,6.9 9,6.9 Z M9,5.5 C10.9329966,5.5 12.5,7.06700338 12.5,9 C12.5,10.9329966 10.9329966,12.5 9,12.5 C7.06700338,12.5 5.5,10.9329966 5.5,9 C5.5,7.06700338 7.06700338,5.5 9,5.5 L9,5.5 Z M13.55,5.325 C13.55,5.80824916 13.1582492,6.2 12.675,6.2 C12.1917508,6.2 11.8,5.80824916 11.8,5.325 C11.8,4.84175084 12.1917508,4.45 12.675,4.45 C13.1582492,4.45 13.55,4.84175084 13.55,5.325 Z M9,3.4 C7.2682,3.4 6.9854,3.4049 6.1797,3.4406 C5.6309,3.4665 5.2627,3.54 4.9211,3.673 C4.6173,3.7906 4.3982,3.9313 4.1651,4.1651 C3.9460048,4.37677937 3.77754722,4.63520862 3.6723,4.9211 C3.5393,5.2641 3.4658,5.6316 3.4406,6.1797 C3.4042,6.9525 3.4,7.2227 3.4,9 C3.4,10.7318 3.4049,11.0146 3.4406,11.8203 C3.4665,12.3684 3.54,12.7373 3.6723,13.0782 C3.7913,13.3827 3.9313,13.6018 4.1637,13.8342 C4.3996,14.0694 4.6187,14.2101 4.9197,14.3263 C5.2655,14.46 5.6337,14.5342 6.1797,14.5594 C6.9525,14.5958 7.2227,14.6 9,14.6 C10.7318,14.6 11.0146,14.5951 11.8203,14.5594 C12.3677,14.5335 12.7366,14.46 13.0782,14.3277 C13.3813,14.2094 13.6018,14.0687 13.8342,13.8363 C14.0701,13.6004 14.2108,13.3813 14.327,13.0803 C14.46,12.7352 14.5342,12.3663 14.5594,11.8203 C14.5958,11.0475 14.6,10.7773 14.6,9 C14.6,7.2682 14.5951,6.9854 14.5594,6.1797 C14.5335,5.6323 14.46,5.2627 14.327,4.9211 C14.2215048,4.63550129 14.0533518,4.37717232 13.8349,4.1651 C13.6233136,3.94589226 13.3648568,3.77741677 13.0789,3.6723 C12.7359,3.5393 12.3677,3.4658 11.8203,3.4406 C11.0475,3.4042 10.7773,3.4 9,3.4 Z M9,2 C10.9019,2 11.1392,2.007 11.8854,2.042 C12.6309,2.077 13.1384,2.1939 13.585,2.3675 C14.047,2.5453 14.4362,2.7861 14.8254,3.1746 C15.1813456,3.52452717 15.4567675,3.94781227 15.6325,4.415 C15.8054,4.8609 15.923,5.3691 15.958,6.1146 C15.9909,6.8608 16,7.0981 16,9 C16,10.9019 15.993,11.1392 15.958,11.8854 C15.923,12.6309 15.8054,13.1384 15.6325,13.585 C15.4572736,14.0524436 15.1817845,14.4758319 14.8254,14.8254 C14.475373,15.1812235 14.0521165,15.4566268 13.585,15.6325 C13.1391,15.8054 12.6309,15.923 11.8854,15.958 C11.1392,15.9909 10.9019,16 9,16 C7.0981,16 6.8608,15.993 6.1146,15.958 C5.3691,15.923 4.8616,15.8054 4.415,15.6325 C3.94762832,15.4571314 3.52426905,15.1816611 3.1746,14.8254 C2.81858451,14.47553 2.54315186,14.0522285 2.3675,13.585 C2.1939,13.1391 2.077,12.6309 2.042,11.8854 C2.0091,11.1392 2,10.9019 2,9 C2,7.0981 2.007,6.8608 2.042,6.1146 C2.077,5.3684 2.1939,4.8616 2.3675,4.415 C2.54266527,3.94752558 2.81816255,3.52412474 3.1746,3.1746 C3.52436968,2.81846186 3.94770001,2.54301047 4.415,2.3675 C4.8616,2.1939 5.3684,2.077 6.1146,2.042 C6.8608,2.0091 7.0981,2 9,2 Z" id="Shape"></path>
            </g>
        </g>
    </g>
</svg>