<?xml version="1.0" encoding="UTF-8"?>
<svg width="16px" height="14px" viewBox="0 0 16 14" version="1.1" xmlns="http://www.w3.org/2000/svg" xmlns:xlink="http://www.w3.org/1999/xlink">
    <title>Shape</title>
    <g id="Page-1" stroke="none" stroke-width="1" fill="none" fill-rule="evenodd">
        <g id="HP-1.4" transform="translate(-1014.000000, -7979.000000)" fill="#000000" fill-rule="nonzero">
            <g id="Group-7" transform="translate(823.000000, 7956.000000)">
                <g id="Group" transform="translate(191.000000, 21.000000)">
                    <path d="M16,15.2276667 C15.9972307,15.652679 15.6759566,15.9966101 15.2785455,16 L2.176,16 C1.77743404,15.9995708 1.45454545,15.653911 1.45454545,15.2276667 L1.45454545,14.4444444 L14.5454545,14.4444444 L14.5454545,5.34444444 L8.72727273,10.9444444 L1.45454545,3.94444444 L1.45454545,2.77777778 C1.45454545,2.34822297 1.78015655,2 2.18181818,2 L15.2727273,2 C15.6743889,2 16,2.34822297 16,2.77777778 L16,15.2276667 Z M3.22472727,3.55555556 L8.72727273,8.85222222 L14.2298182,3.55555556 L3.22472727,3.55555556 Z M0,11.3333333 L5.81818182,11.3333333 L5.81818182,12.8888889 L0,12.8888889 L0,11.3333333 Z M0,7.44444444 L3.63636364,7.44444444 L3.63636364,9 L0,9 L0,7.44444444 Z" id="Shape"></path>
                </g>
            </g>
        </g>
    </g>
</svg>