<svg  xmlns="http://www.w3.org/2000/svg" ><g><g><path fill="#fff" d="M18.309 21.338a5.157 5.157 0 0 1-2.544 2.154c-.782.314-1.687.472-2.714.472-1.013 0-1.898-.134-2.653-.401a4.593 4.593 0 0 1-1.887-1.223c-.504-.548-.882-1.244-1.133-2.09C7.126 19.405 7 18.404 7 17.248c0-1.062.134-2.017.403-2.866.268-.849.668-1.571 1.198-2.166a5.23 5.23 0 0 1 1.968-1.37c.783-.317 1.69-.476 2.724-.476.987 0 1.858.132 2.613.395.755.264 1.386.67 1.893 1.218.248.267.466.57.654.905l-2.114 2.13a3.892 3.892 0 0 0-.494-1.194 2.628 2.628 0 0 0-1.032-.934c-.43-.22-.966-.329-1.61-.329-.652 0-1.196.123-1.632.37a3.011 3.011 0 0 0-1.057.99 4.106 4.106 0 0 0-.57 1.445 8.874 8.874 0 0 0-.165 1.75c0 .716.054 1.36.16 1.932.108.572.29 1.06.545 1.466.254.406.597.715 1.027.928.429.213.97.32 1.62.32.652 0 1.195-.122 1.632-.366a2.93 2.93 0 0 0 1.057-.994c.206-.322.366-.685.48-1.089l2.009 2.025z"/><path fill="#fff" d="M24.148 8.078c.063 0 .136.02.218.062.095.048.21.126.346.233.135.108.293.252.473.434.185.187.33.347.434.481.105.134.18.249.228.344a.467.467 0 0 1 .06.248.283.283 0 0 1-.081.175l-7.16 7.214 4.784 4.82a.296.296 0 0 1 .085.165.411.411 0 0 1-.039.219c-.036.083-.096.18-.181.29-.086.11-.2.237-.342.38-.142.144-.52.512-.63.598-.108.086-.207.15-.294.19a.479.479 0 0 1-.228.05.274.274 0 0 1-.167-.082l-6.109-6.154a.833.833 0 0 1-.256-.538c-.014-.201.083-.406.292-.617l8.366-8.428a.28.28 0 0 1 .201-.084z"/></g></g></svg>