<!-- Generated by IcoMoon.io -->
<svg version="1.1" xmlns="http://www.w3.org/2000/svg" width="448" height="448" viewBox="0 0 448 448">
<title></title>
<g id="icomoon-ignore">
</g>
<path d="M448 88v272c0 6.5-4 12.25-9.75 14.75-2 0.75-4.25 1.25-6.25 1.25-4.25 0-8.25-1.5-11.25-4.75l-100.75-100.75v41.5c0 39.75-32.25 72-72 72h-176c-39.75 0-72-32.25-72-72v-176c0-39.75 32.25-72 72-72h176c39.75 0 72 32.25 72 72v41.25l100.75-100.5c3-3.25 7-4.75 11.25-4.75 2 0 4.25 0.5 6.25 1.25 5.75 2.5 9.75 8.25 9.75 14.75z"></path>
</svg>
