<?xml version="1.0" encoding="UTF-8"?>
<svg width="16px" height="16px" viewBox="0 0 16 16" version="1.1" xmlns="http://www.w3.org/2000/svg" xmlns:xlink="http://www.w3.org/1999/xlink">
    <title>Shape</title>
    <g id="Page-1" stroke="none" stroke-width="1" fill="none" fill-rule="evenodd">
        <g id="HP-1.5" transform="translate(-1244.000000, -66.000000)" fill="#000000" fill-rule="nonzero">
            <g id="Group" transform="translate(1242.000000, 64.000000)">
                <path d="M9.0887073,2 C13.0016737,2 16.1774146,5.17574087 16.1774146,9.0887073 C16.1774146,13.0016737 13.0016737,16.1774146 9.0887073,16.1774146 C5.17574087,16.1774146 2,13.0016737 2,9.0887073 C2,5.17574087 5.17574087,2 9.0887073,2 Z M9.0887073,14.6021463 C12.1344885,14.6021463 14.6021463,12.1344885 14.6021463,9.0887073 C14.6021463,6.04213843 12.1344885,3.57526829 9.0887073,3.57526829 C6.04213843,3.57526829 3.57526829,6.04213843 3.57526829,9.0887073 C3.57526829,12.1344885 6.04213843,14.6021463 9.0887073,14.6021463 Z M15.771783,14.6580683 L18,16.8854977 L16.8854977,18 L14.6580683,15.771783 L15.771783,14.6580683 L15.771783,14.6580683 Z" id="Shape"></path>
            </g>
        </g>
    </g>
</svg>