<?xml version="1.0" encoding="UTF-8"?>
<svg width="17px" height="13px" viewBox="0 0 17 13" version="1.1" xmlns="http://www.w3.org/2000/svg" xmlns:xlink="http://www.w3.org/1999/xlink">
    <title>Shape</title>
    <g id="Page-1" stroke="none" stroke-width="1" fill="none" fill-rule="evenodd">
        <g id="HP-1.5" transform="translate(-1194.000000, -68.000000)" fill="#FF102C" fill-rule="nonzero">
            <g id="Group" transform="translate(1193.000000, 65.000000)">
                <path d="M12.7844858,4.56296158 C11.4444578,4.56275539 10.3512263,5.55169326 10.3267361,6.78624348 L10.3030061,8.01619393 C10.3001965,8.14976252 10.235644,8.2758745 10.1255758,8.3628284 C10.0155076,8.44978229 9.8703915,8.4893084 9.72670622,8.47147082 L8.40375891,8.30591559 C6.66299417,8.08725773 4.99511441,7.34850654 3.39503465,6.12011793 C2.88822972,8.70496618 3.87810958,10.4956179 6.26212673,11.877067 L7.74270901,12.7345181 C7.88555043,12.8172327 7.97457105,12.9598411 7.9803441,13.1152026 C7.98611715,13.2705641 7.90789095,13.4184491 7.771524,13.5099726 L6.4223042,14.4181836 C7.22488658,14.464258 7.98678897,14.4314593 8.61902388,14.315883 C12.6175283,13.5802555 15.2761354,10.8079862 15.2761354,6.2349133 C15.2761354,5.8616331 14.4184655,4.56296158 12.7844858,4.56296158 L12.7844858,4.56296158 Z M8.63173638,6.7573494 C8.66198184,5.21829799 9.69012254,3.84577759 11.2411163,3.27394761 C12.79211,2.70211763 14.5639688,3.0423169 15.7380228,4.13735971 C16.3405952,4.1334551 16.8533327,4.27402087 18,3.63366571 C17.7160875,4.91437603 17.5762501,5.47039172 16.9711352,6.2349133 C16.9711352,12.202711 12.9904282,15.1046131 8.95124383,15.8472689 C6.18161424,16.3564294 2.15429483,15.5200631 1,14.4095935 C1.58816491,14.3674238 3.97811456,14.1308047 5.35953936,13.1991661 C4.19083703,12.489309 -0.461089785,9.96693439 2.59584227,3.1854171 C4.03065955,4.72929777 5.48581684,5.78041733 6.96046662,6.33799487 C7.94187148,6.7089323 8.18256144,6.70112309 8.63258388,6.75813032 L8.63173638,6.7573494 Z" id="Shape"></path>
            </g>
        </g>
    </g>
</svg>