<?xml version="1.0" encoding="UTF-8"?>
<svg width="18px" height="13px" viewBox="0 0 18 13" version="1.1" xmlns="http://www.w3.org/2000/svg" xmlns:xlink="http://www.w3.org/1999/xlink">
    <title>Shape</title>
    <g id="Page-1" stroke="none" stroke-width="1" fill="none" fill-rule="evenodd">
        <g id="HP-1.5" transform="translate(-1126.000000, -67.000000)" fill="#FF102C" fill-rule="nonzero">
            <g id="Group" transform="translate(1124.000000, 64.000000)">
                <path d="M17.8454,5.4334375 C17.777,5.1913125 17.5826,5.0085 17.3603,4.9524375 C16.967,4.8525 15.05,4.625 11,4.625 C6.95,4.625 5.0348,4.8525 4.6379,4.9524375 C4.4183,5.0076875 4.2239,5.1905 4.1546,5.4334375 C4.0565,5.7779375 3.8,7.22175 3.8,9.5 C3.8,11.77825 4.0565,13.22125 4.1546,13.567375 C4.223,13.8086875 4.4174,13.9915 4.6388,14.04675 C5.0348,14.1475 6.95,14.375 11,14.375 C15.05,14.375 16.9661,14.1475 17.3621,14.0475625 C17.5817,13.9923125 17.7761,13.8095 17.8454,13.5665625 C17.9435,13.2220625 18.2,11.775 18.2,9.5 C18.2,7.225 17.9435,5.77875 17.8454,5.4334375 Z M19.5887,5.029625 C20,6.4775 20,9.5 20,9.5 C20,9.5 20,12.5225 19.5887,13.970375 C19.3601,14.7706875 18.6914,15.400375 17.8445,15.61325 C16.3064,16 11,16 11,16 C11,16 5.6963,16 4.1555,15.61325 C3.305,15.397125 2.6372,14.76825 2.4113,13.970375 C2,12.5225 2,9.5 2,9.5 C2,9.5 2,6.4775 2.4113,5.029625 C2.6399,4.2293125 3.3086,3.599625 4.1555,3.38675 C5.6963,3 11,3 11,3 C11,3 16.3064,3 17.8445,3.38675 C18.695,3.602875 19.3628,4.23175 19.5887,5.029625 L19.5887,5.029625 Z M9.2,12.34375 L9.2,6.65625 L14.6,9.5 L9.2,12.34375 Z" id="Shape"></path>
            </g>
        </g>
    </g>
</svg>