<svg fill="#fff" xmlns="http://www.w3.org/2000/svg" width="448" height="448" viewBox="0 0 448 448"><path d="M439.25 352l8.75 78.25c.5 4.5-1 9-4 12.5-3 3.25-7.5 5.25-12 5.25H16c-4.5 0-9-2-12-5.25-3-3.5-4.5-8-4-12.5L8.75 352h430.5zM416 142.25L437.5 336h-427L32 142.25c1-8 7.75-14.25 16-14.25h64v32c0 17.75 14.25 32 32 32s32-14.25 32-32v-32h96v32c0 17.75 14.25 32 32 32s32-14.25 32-32v-32h64c8.25 0 15 6.25 16 14.25zM320 96v64c0 8.75-7.25 16-16 16s-16-7.25-16-16V96c0-35.25-28.75-64-64-64s-64 28.75-64 64v64c0 8.75-7.25 16-16 16s-16-7.25-16-16V96c0-53 43-96 96-96s96 43 96 96z"/></svg>