<svg width="14" height="14" viewBox="0 0 14 14" xmlns="http://www.w3.org/2000/svg"><path d="M8.556 12.444h3.888V1.556H1.556v10.888H7V8.556H5.444V7H7V5.714c0-1.04.109-1.418.311-1.798.2-.376.507-.684.884-.883.297-.16.666-.255 1.312-.296.256-.016.587.004.994.062v1.478h-.39c-.713 0-1.008.033-1.184.128a.565.565 0 00-.244.244c-.093.176-.127.35-.127 1.064V7H10.5l-.389 1.556H8.556v3.888zM.778 0h12.444c.43 0 .778.348.778.778v12.444c0 .43-.348.778-.778.778H.778A.778.778 0 010 13.222V.778C0 .348.348 0 .778 0z" fill="#FF102C" fill-rule="nonzero"/></svg>