<svg width="14" height="14" viewBox="0 0 14 14" xmlns="http://www.w3.org/2000/svg"><path d="M7 4.9a2.1 2.1 0 100 4.2 2.1 2.1 0 000-4.2zm0-1.4a3.5 3.5 0 110 7 3.5 3.5 0 010-7zm4.55-.175a.875.875 0 11-1.75 0 .875.875 0 011.75 0zM7 1.4c-1.732 0-2.015.005-2.82.04-.55.026-.917.1-1.259.233a2.02 2.02 0 00-.756.492c-.219.212-.387.47-.493.756-.133.343-.206.71-.231 1.259C1.404 4.952 1.4 5.223 1.4 7c0 1.732.005 2.015.04 2.82.026.548.1.917.232 1.258.12.305.26.524.492.756.236.235.455.376.756.492.346.134.714.208 1.26.233.772.037 1.043.041 2.82.041 1.732 0 2.015-.005 2.82-.04.548-.027.917-.1 1.258-.232.303-.119.524-.26.756-.492.236-.236.377-.455.493-.756.133-.345.207-.714.232-1.26.037-.773.041-1.043.041-2.82 0-1.732-.005-2.015-.04-2.82-.027-.548-.1-.917-.233-1.259a2.038 2.038 0 00-.492-.756 2.019 2.019 0 00-.756-.493c-.343-.133-.711-.206-1.259-.231C9.047 1.404 8.777 1.4 7 1.4zM7 0c1.902 0 2.14.007 2.885.042.746.035 1.253.152 1.7.326.462.177.851.418 1.24.807.356.35.632.773.808 1.24.172.446.29.954.325 1.7.033.746.042.983.042 2.885 0 1.902-.007 2.14-.042 2.885-.035.746-.153 1.253-.325 1.7-.176.467-.451.89-.808 1.24a3.44 3.44 0 01-1.24.808c-.446.172-.954.29-1.7.325C9.14 13.991 8.902 14 7 14c-1.902 0-2.14-.007-2.885-.042-.746-.035-1.253-.153-1.7-.325a3.423 3.423 0 01-1.24-.808 3.433 3.433 0 01-.807-1.24c-.174-.446-.291-.954-.326-1.7C.009 9.14 0 8.902 0 7c0-1.902.007-2.14.042-2.885.035-.747.152-1.253.326-1.7.175-.467.45-.89.807-1.24.35-.357.773-.632 1.24-.807.447-.174.953-.291 1.7-.326C4.86.009 5.098 0 7 0z" fill="#FF102C" fill-rule="nonzero"/></svg>