<svg width="17" height="13" viewBox="0 0 17 13" xmlns="http://www.w3.org/2000/svg"><path d="M11.784 1.563c-1.34 0-2.433.989-2.457 2.223l-.024 1.23a.455.455 0 01-.177.347.539.539 0 01-.4.108l-1.322-.165c-1.741-.219-3.409-.957-5.009-2.186-.507 2.585.483 4.376 2.867 5.757l1.48.858a.463.463 0 01.238.38.457.457 0 01-.208.395l-1.35.908c.803.046 1.565.013 2.197-.102 3.999-.736 6.657-3.508 6.657-8.081 0-.373-.858-1.672-2.492-1.672zM7.632 3.757C7.662 2.218 8.69.846 10.242.274c1.55-.572 3.322-.232 4.496.863.603-.004 1.115.137 2.262-.503-.284 1.28-.424 1.836-1.029 2.6 0 5.969-3.98 8.87-8.02 9.613-2.77.51-6.797-.327-7.951-1.437.588-.043 2.978-.28 4.36-1.21C3.19 9.49-1.461 6.966 1.596.184 3.03 1.73 4.486 2.78 5.96 3.338c.982.37 1.223.363 1.673.42h-.001z" fill="#FF102C" fill-rule="nonzero"/></svg>