<svg width="18" height="13" viewBox="0 0 18 13" xmlns="http://www.w3.org/2000/svg"><path d="M15.845 2.433a.692.692 0 00-.485-.48c-.393-.1-2.31-.328-6.36-.328-4.05 0-5.965.228-6.362.327a.693.693 0 00-.483.481C2.056 2.778 1.8 4.222 1.8 6.5c0 2.278.256 3.721.355 4.067a.69.69 0 00.484.48c.396.1 2.311.328 6.361.328s5.966-.227 6.362-.327a.693.693 0 00.483-.481c.098-.345.355-1.792.355-4.067 0-2.275-.256-3.721-.355-4.067zm1.744-.403C18 3.478 18 6.5 18 6.5s0 3.023-.411 4.47c-.229.8-.898 1.43-1.744 1.643C14.306 13 9 13 9 13s-5.304 0-6.845-.387c-.85-.216-1.518-.845-1.744-1.643C0 9.523 0 6.5 0 6.5s0-3.022.411-4.47C.64 1.23 1.31.6 2.155.387 3.696 0 9 0 9 0s5.306 0 6.845.387c.85.216 1.518.845 1.744 1.643zM7.2 9.344V3.656L12.6 6.5 7.2 9.344z" fill="#FF102C" fill-rule="nonzero"/></svg>